<?xml version="1.0" encoding="utf-8"?>
<!-- Generator: Adobe Illustrator 26.0.1, SVG Export Plug-In . SVG Version: 6.00 Build 0)  -->
<svg version="1.1" id="Layer_1" xmlns="http://www.w3.org/2000/svg" xmlns:xlink="http://www.w3.org/1999/xlink" x="0px" y="0px"
	 viewBox="0 0 751.97 186.49" style="enable-background:new 0 0 751.97 186.49;" xml:space="preserve">
<style type="text/css">
	.st0{fill:#1A2D4F;}
	.st1{fill:#C65D67;}
	.st2{fill:#E95A59;}
	.st3{fill:#D96A5E;}
	.st4{fill:#E56D5D;}
	.st5{fill:#E16E54;}
	.st6{fill:#E5775D;}
	.st7{fill:#EF8B59;}
	.st8{fill:#EA9260;}
	.st9{fill:#F39E56;}
	.st10{fill:#F1A94E;}
	.st11{fill:#F0B65A;}
	.st12{fill:#FECD55;}
	.st13{fill:#F5D95A;}
	.st14{fill:#FFFFFF;}
	.st15{fill:url(#SVGID_1_);}
	.st16{opacity:0.73;fill:url(#SVGID_00000174576980662070332630000004864103213951017121_);}
</style>
<g>
	<g>
		<path class="st14" d="M184.56,118.43l9.47-11.35c6.56,5.41,13.43,8.85,21.75,8.85c6.56,0,10.51-2.6,10.51-6.87v-0.21
			c0-4.06-2.5-6.14-14.68-9.26c-14.68-3.75-24.15-7.81-24.15-22.27v-0.21c0-13.22,10.62-21.96,25.5-21.96
			c10.62,0,19.67,3.33,27.06,9.26l-8.33,12.07c-6.45-4.48-12.8-7.18-18.94-7.18c-6.14,0-9.37,2.81-9.37,6.35v0.21
			c0,4.79,3.12,6.35,15.72,9.58c14.78,3.85,23.11,9.16,23.11,21.86v0.21c0,14.47-11.03,22.59-26.75,22.59
			C204.44,130.09,193.3,126.24,184.56,118.43z"/>
		<path class="st14" d="M247.64,101.46v-0.21c0-16.03,12.91-29.04,30.29-29.04c17.28,0,30.08,12.8,30.08,28.83v0.21
			c0,16.03-12.91,29.04-30.29,29.04C260.44,130.3,247.64,117.49,247.64,101.46z M292.4,101.46v-0.21c0-8.22-5.93-15.41-14.68-15.41
			c-9.06,0-14.47,6.97-14.47,15.2v0.21c0,8.22,5.93,15.41,14.68,15.41C286.98,116.66,292.4,109.69,292.4,101.46z"/>
		<path class="st14" d="M314.88,109.37V73.26h15.82v31.12c0,7.49,3.54,11.35,9.58,11.35c6.04,0,9.89-3.85,9.89-11.35V73.26h15.82
			v55.79h-15.82v-7.91c-3.64,4.68-8.33,8.95-16.34,8.95C321.85,130.09,314.88,122.18,314.88,109.37z"/>
		<path class="st14" d="M375.98,73.26h15.82v7.91c3.64-4.68,8.33-8.95,16.34-8.95c11.97,0,18.94,7.91,18.94,20.71v36.12h-15.82
			V97.92c0-7.49-3.54-11.35-9.58-11.35c-6.04,0-9.89,3.85-9.89,11.35v31.12h-15.82V73.26z"/>
		<path class="st14" d="M434.17,101.25v-0.21c0-18.63,12.18-28.83,25.4-28.83c8.43,0,13.64,3.85,17.38,8.33V53.06h15.82v75.99
			h-15.82v-8.01c-3.85,5.2-9.16,9.06-17.38,9.06C446.56,130.09,434.17,119.89,434.17,101.25z M477.16,101.25v-0.21
			c0-9.26-6.14-15.41-13.53-15.41c-7.39,0-13.64,6.04-13.64,15.41v0.21c0,9.26,6.25,15.41,13.64,15.41
			C471.02,116.66,477.16,110.52,477.16,101.25z"/>
		<path class="st14" d="M500.06,101.46v-0.21c0-16.03,12.91-29.04,30.29-29.04c17.28,0,30.08,12.8,30.08,28.83v0.21
			c0,16.03-12.91,29.04-30.29,29.04C512.87,130.3,500.06,117.49,500.06,101.46z M544.82,101.46v-0.21c0-8.22-5.93-15.41-14.68-15.41
			c-9.06,0-14.47,6.97-14.47,15.2v0.21c0,8.22,5.93,15.41,14.68,15.41C539.41,116.66,544.82,109.69,544.82,101.46z"/>
		<path class="st14" d="M563.35,121.66l6.77-10.41c6.04,4.37,12.39,6.66,17.59,6.66c4.58,0,6.66-1.67,6.66-4.16v-0.21
			c0-3.43-5.41-4.58-11.55-6.45c-7.81-2.29-16.65-5.93-16.65-16.76v-0.21c0-11.35,9.16-17.7,20.4-17.7c7.08,0,14.78,2.39,20.82,6.45
			l-6.04,10.93c-5.52-3.23-11.03-5.2-15.09-5.2c-3.85,0-5.83,1.67-5.83,3.85v0.21c0,3.12,5.31,4.58,11.35,6.66
			c7.81,2.6,16.86,6.35,16.86,16.55v0.21c0,12.39-9.26,18.01-21.34,18.01C579.48,130.09,570.74,127.48,563.35,121.66z"/>
		<path class="st14" d="M615.81,53.06h15.82v28.1c3.64-4.68,8.33-8.95,16.34-8.95c11.97,0,18.94,7.91,18.94,20.71v36.12H651.1V97.92
			c0-7.49-3.54-11.35-9.58-11.35c-6.04,0-9.89,3.85-9.89,11.35v31.12h-15.82V53.06z"/>
		<path class="st14" d="M677.23,73.26h15.82v55.79h-15.82V73.26z"/>
	</g>
	<circle class="st14" cx="685.2" cy="59.14" r="7.97"/>
</g>
<rect x="54.02" y="86.7" class="st14" width="110.49" height="6.78"/>
<rect x="54.02" y="71.83" class="st14" width="6.96" height="21.65"/>
<rect x="57.51" y="75.59" class="st14" width="6.96" height="17.88"/>
<rect x="67.95" y="71.83" class="st14" width="10.85" height="21.65"/>
<rect x="82.28" y="38.13" class="st14" width="10.85" height="55.34"/>
<rect x="54.02" y="95.31" class="st0" width="10.85" height="3.74"/>
<rect x="54.02" y="100.63" class="st0" width="10.85" height="3.74"/>
<rect x="54.02" y="105.94" class="st0" width="10.85" height="3.74"/>
<rect x="54.02" y="111.26" class="st0" width="10.85" height="3.74"/>
<rect x="67.95" y="95.31" class="st0" width="10.85" height="3.74"/>
<rect x="67.95" y="100.63" class="st0" width="10.85" height="3.74"/>
<rect x="67.95" y="105.94" class="st0" width="10.85" height="3.74"/>
<rect x="67.95" y="111.26" class="st0" width="10.85" height="3.74"/>
<rect x="82.28" y="95.31" class="st0" width="10.85" height="3.74"/>
<rect x="82.28" y="100.63" class="st0" width="10.85" height="3.74"/>
<rect x="82.28" y="105.94" class="st0" width="10.85" height="3.74"/>
<rect x="82.28" y="111.26" class="st0" width="10.85" height="3.74"/>
<rect x="110.52" y="95.31" class="st0" width="10.85" height="3.74"/>
<rect x="110.52" y="100.63" class="st0" width="10.85" height="3.74"/>
<rect x="110.52" y="105.94" class="st0" width="10.85" height="3.74"/>
<rect x="110.52" y="111.26" class="st0" width="10.85" height="3.74"/>
<rect x="110.52" y="116.58" class="st0" width="10.85" height="3.74"/>
<rect x="124.85" y="95.31" class="st0" width="10.85" height="3.74"/>
<rect x="124.85" y="100.63" class="st0" width="10.85" height="3.74"/>
<rect x="124.85" y="105.94" class="st0" width="10.85" height="3.74"/>
<rect x="124.85" y="111.26" class="st0" width="10.85" height="3.74"/>
<rect x="124.85" y="116.58" class="st0" width="10.85" height="3.74"/>
<rect x="124.85" y="121.9" class="st0" width="10.85" height="3.74"/>
<rect x="124.85" y="127.21" class="st0" width="10.85" height="3.74"/>
<rect x="139.53" y="95.31" class="st0" width="10.85" height="3.74"/>
<rect x="139.53" y="100.63" class="st0" width="10.85" height="3.74"/>
<rect x="139.53" y="105.94" class="st0" width="10.85" height="3.74"/>
<rect x="139.53" y="111.26" class="st0" width="10.85" height="3.74"/>
<rect x="139.53" y="116.58" class="st0" width="10.85" height="3.74"/>
<rect x="139.53" y="121.9" class="st0" width="10.85" height="3.74"/>
<rect x="139.53" y="127.21" class="st0" width="10.85" height="3.74"/>
<rect x="139.53" y="132.53" class="st0" width="10.85" height="3.74"/>
<rect x="82.28" y="116.58" class="st0" width="10.85" height="3.74"/>
<rect x="82.28" y="121.9" class="st0" width="10.85" height="3.74"/>
<rect x="67.95" y="116.58" class="st0" width="10.85" height="3.74"/>
<rect x="67.95" y="121.9" class="st0" width="10.85" height="3.74"/>
<rect x="82.28" y="127.21" class="st0" width="10.85" height="3.74"/>
<rect x="82.28" y="132.53" class="st0" width="10.85" height="3.74"/>
<rect x="82.28" y="137.85" class="st0" width="10.85" height="3.74"/>
<rect x="82.28" y="143.17" class="st0" width="10.85" height="3.74"/>
<rect x="153.87" y="95.31" class="st0" width="10.85" height="3.74"/>
<rect x="153.87" y="100.63" class="st0" width="10.85" height="3.74"/>
<rect x="153.87" y="105.94" class="st0" width="10.85" height="3.74"/>
<rect x="110.73" y="65.8" class="st14" width="10.82" height="27.67"/>
<polygon class="st14" points="136.05,58.65 131.66,58.65 131.59,54.79 125.04,54.79 125.04,93.47 136.05,93.47 "/>
<polygon class="st14" points="150.17,65.8 145.93,65.8 145.86,49.71 139.53,49.71 139.53,93.47 150.17,93.47 "/>
<polygon class="st14" points="164.52,77.24 158.35,77.24 158.28,80.7 153.74,80.7 153.74,93.47 164.52,93.47 "/>
<path class="st14" d="M107.25,21.19c0,0-10.69,3.14-10.69,12.58s0,59.7,0,59.7h10.69V21.19z"/>
<rect x="70.96" y="60.53" class="st14" width="4.68" height="32.94"/>
<rect x="96.59" y="95.31" transform="matrix(-1 -1.224647e-16 1.224647e-16 -1 204.1666 194.3599)" class="st1" width="10.99" height="3.74"/>
<rect x="96.59" y="100.63" class="st2" width="10.99" height="3.74"/>
<rect x="96.59" y="105.94" class="st3" width="10.99" height="3.74"/>
<rect x="96.59" y="111.26" class="st4" width="10.99" height="3.74"/>
<rect x="96.59" y="116.58" class="st5" width="10.99" height="3.74"/>
<rect x="96.59" y="121.9" class="st6" width="10.99" height="3.74"/>
<rect x="96.59" y="127.21" class="st7" width="10.99" height="3.74"/>
<rect x="96.59" y="132.53" class="st8" width="10.99" height="3.74"/>
<rect x="96.59" y="137.85" class="st9" width="10.99" height="3.74"/>
<rect x="96.59" y="143.17" class="st10" width="10.99" height="3.74"/>
<rect x="96.59" y="148.48" class="st11" width="10.99" height="3.74"/>
<rect x="96.59" y="153.8" class="st12" width="10.99" height="3.74"/>
<rect x="96.59" y="159.12" class="st13" width="10.99" height="3.74"/>
<rect x="82.22" y="95.31" transform="matrix(-1 -1.224647e-16 1.224647e-16 -1 175.4189 194.3599)" class="st1" width="10.99" height="3.74"/>
<rect x="82.22" y="100.63" class="st2" width="10.99" height="3.74"/>
<rect x="82.22" y="105.94" class="st3" width="10.99" height="3.74"/>
<rect x="82.22" y="111.26" class="st4" width="10.99" height="3.74"/>
<rect x="82.22" y="116.58" class="st5" width="10.99" height="3.74"/>
<rect x="82.22" y="121.9" class="st6" width="10.99" height="3.74"/>
<rect x="82.22" y="127.21" class="st7" width="10.99" height="3.74"/>
<rect x="82.22" y="132.53" class="st8" width="10.99" height="3.74"/>
<rect x="82.22" y="137.85" class="st9" width="10.99" height="3.74"/>
<rect x="82.22" y="143.17" class="st10" width="10.99" height="3.74"/>
<rect x="67.8" y="95.31" transform="matrix(-1 -1.224647e-16 1.224647e-16 -1 146.5928 194.3599)" class="st1" width="10.99" height="3.74"/>
<rect x="67.8" y="100.63" class="st2" width="10.99" height="3.74"/>
<rect x="67.8" y="105.94" class="st3" width="10.99" height="3.74"/>
<rect x="67.8" y="111.26" class="st4" width="10.99" height="3.74"/>
<rect x="67.8" y="116.58" class="st5" width="10.99" height="3.74"/>
<rect x="67.8" y="121.9" class="st6" width="10.99" height="3.74"/>
<rect x="53.96" y="95.31" transform="matrix(-1 -1.224647e-16 1.224647e-16 -1 118.8962 194.3599)" class="st1" width="10.99" height="3.74"/>
<rect x="53.96" y="100.63" class="st2" width="10.99" height="3.74"/>
<rect x="53.96" y="105.94" class="st3" width="10.99" height="3.74"/>
<rect x="53.96" y="111.26" class="st4" width="10.99" height="3.74"/>
<rect x="110.45" y="95.31" transform="matrix(-1 -1.224647e-16 1.224647e-16 -1 231.8894 194.3599)" class="st1" width="10.99" height="3.74"/>
<rect x="110.45" y="100.63" class="st2" width="10.99" height="3.74"/>
<rect x="110.45" y="105.94" class="st3" width="10.99" height="3.74"/>
<rect x="110.45" y="111.26" class="st4" width="10.99" height="3.74"/>
<rect x="110.45" y="116.58" class="st5" width="10.99" height="3.74"/>
<rect x="124.78" y="95.31" transform="matrix(-1 -1.224647e-16 1.224647e-16 -1 260.5533 194.3599)" class="st1" width="10.99" height="3.74"/>
<rect x="124.78" y="100.63" class="st2" width="10.99" height="3.74"/>
<rect x="124.78" y="105.94" class="st3" width="10.99" height="3.74"/>
<rect x="124.78" y="111.26" class="st4" width="10.99" height="3.74"/>
<rect x="124.78" y="116.58" class="st5" width="10.99" height="3.74"/>
<rect x="124.78" y="121.9" class="st6" width="10.99" height="3.74"/>
<rect x="124.78" y="127.21" class="st7" width="10.99" height="3.74"/>
<rect x="139.47" y="95.31" transform="matrix(-1 -1.224647e-16 1.224647e-16 -1 289.9179 194.3599)" class="st1" width="10.99" height="3.74"/>
<rect x="139.47" y="100.63" class="st2" width="10.99" height="3.74"/>
<rect x="139.47" y="105.94" class="st3" width="10.99" height="3.74"/>
<rect x="139.47" y="111.26" class="st4" width="10.99" height="3.74"/>
<rect x="139.47" y="116.58" class="st5" width="10.99" height="3.74"/>
<rect x="139.47" y="121.9" class="st6" width="10.99" height="3.74"/>
<rect x="139.47" y="127.21" class="st7" width="10.99" height="3.74"/>
<rect x="139.47" y="132.53" class="st8" width="10.99" height="3.74"/>
<rect x="153.64" y="95.31" transform="matrix(-1 -1.224647e-16 1.224647e-16 -1 318.258 194.3599)" class="st1" width="10.99" height="3.74"/>
<rect x="153.64" y="100.63" class="st2" width="10.99" height="3.74"/>
<rect x="153.64" y="105.94" class="st3" width="10.99" height="3.74"/>
</svg>
